<?xml version="1.0" encoding="utf-8"?>
<!-- Generator: Adobe Illustrator 19.0.0, SVG Export Plug-In . SVG Version: 6.00 Build 0)  -->
<svg version="1.1" id="Capa_1" xmlns="http://www.w3.org/2000/svg" xmlns:xlink="http://www.w3.org/1999/xlink" x="0px" y="0px"
	 viewBox="-277 400.9 40 40" style="enable-background:new -277 400.9 40 40;" xml:space="preserve">
<style type="text/css">
	.st0{fill:none;}
	.st1{fill:#56564E;stroke:#56564E;stroke-width:0.2;}
</style>
<rect x="-277" y="400.9" class="st0" width="40" height="40"/>
<g id="Grupo_568" transform="translate(1340.934 3085)">
	<path id="Trazado_298" class="st1" d="M-1601.4-2676.1h0.8c0,0,0.1,0,0.1,0c1.3,0.2,2.4,1.1,2.9,2.3c0.2,0.6,0.3,1.2,0.3,1.9
		c0,0.3,0,0.7,0,1h1c0.7,0,1.3,0,2,0c0.4,0,0.7,0.2,0.8,0.6c0,0,0,0.1,0,0.1c0,0.3,0.1,0.6,0.1,0.9c0.1,0.8,0.1,1.5,0.2,2.3
		c0.1,0,0.2,0,0.3-0.1c0.2,0,0.3,0,0.5,0c1.7,0.5,3.4,1,5.1,1.5c0.4,0.1,0.6,0.4,0.6,0.8c0,1.6,0,3.1,0,4.7c0,2.8-1.4,5.4-3.8,6.9
		c-0.6,0.4-1.3,0.7-1.9,1h-16.8c-0.4-0.1-0.6-0.5-0.5-0.9c0.2-1.9,0.3-3.7,0.5-5.6s0.3-3.8,0.5-5.6s0.3-3.8,0.5-5.6
		c0.1-0.6,0.3-0.8,0.9-0.8c0.9,0,1.7,0,2.6,0h0.3c0-0.1,0-0.2,0-0.3c0-0.5,0-1,0-1.5c0.1-1.3,0.8-2.4,2-3
		C-1602.3-2675.9-1601.9-2676-1601.4-2676.1z M-1595.5-2653.7c-0.1-0.1-0.2-0.1-0.2-0.2c-1.8-1.5-2.9-3.8-3-6.2
		c-0.1-1.6,0-3.2,0-4.8c0-0.4,0.2-0.7,0.6-0.7c0.8-0.2,1.7-0.5,2.5-0.7c0.3-0.1,0.6-0.2,1-0.3l-0.2-2.8h-2.4c0,0,0,0,0,0.1
		c0,0.4,0,0.9,0,1.3c0,0.5-0.3,0.8-0.7,0.8c-0.4,0-0.7-0.4-0.7-0.8c0,0,0-0.1,0-0.1c0-0.3,0-0.6,0-0.9c0-0.2,0-0.3,0-0.5h-4.6v0.3
		c0,0.4,0,0.8,0,1.2c0,0.4-0.3,0.7-0.7,0.7c0,0,0,0,0,0c-0.4,0-0.7-0.3-0.7-0.7c0,0,0,0,0,0c0-0.2,0-0.4,0-0.7c0-0.3,0-0.6,0-0.9
		h-2.4l-1.4,15.8L-1595.5-2653.7z M-1597.3-2664.4v0.2c0,1.3,0,2.7,0,4c0,0.3,0,0.6,0.1,0.9c0.3,2.5,1.9,4.6,4.3,5.5
		c0.1,0.1,0.3,0.1,0.4,0c2.7-1.1,4.4-3.7,4.3-6.6c0-1.2,0-2.5,0-3.7v-0.3c0,0-0.1,0-0.1,0c-1.4-0.4-2.8-0.8-4.3-1.2
		c-0.1,0-0.2,0-0.3,0C-1594.4-2665.3-1595.8-2664.8-1597.3-2664.4L-1597.3-2664.4z M-1598.7-2670.9c0-0.6,0-1.1,0-1.6
		c0-1.2-0.9-2.1-2.1-2.2c-1.1-0.1-2.2,0.6-2.4,1.7c-0.1,0.7-0.1,1.4-0.1,2.1L-1598.7-2670.9z"/>
	<path id="Trazado_299" class="st1" d="M-1592.9-2659.4l1.6-2.7c0.1-0.1,0.1-0.2,0.2-0.3c0.2-0.3,0.6-0.4,0.9-0.2
		c0.3,0.2,0.4,0.6,0.3,0.9c0,0.1-0.1,0.1-0.1,0.2c-0.7,1.2-1.4,2.3-2.1,3.5c-0.1,0.4-0.6,0.6-0.9,0.4c-0.1-0.1-0.2-0.1-0.3-0.3
		c-0.4-0.4-0.9-0.9-1.3-1.3c-0.3-0.2-0.4-0.7-0.1-1c0,0,0,0,0-0.1c0.3-0.3,0.7-0.3,1,0c0,0,0,0,0,0.1L-1592.9-2659.4
		C-1592.9-2659.4-1592.9-2659.4-1592.9-2659.4z"/>
</g>
</svg>
