<?xml version="1.0" encoding="utf-8"?>
<!-- Generator: Adobe Illustrator 19.0.0, SVG Export Plug-In . SVG Version: 6.00 Build 0)  -->
<svg version="1.1" id="Capa_1" xmlns="http://www.w3.org/2000/svg" xmlns:xlink="http://www.w3.org/1999/xlink" x="0px" y="0px"
	 viewBox="-277 400.9 40 40" style="enable-background:new -277 400.9 40 40;" xml:space="preserve">
<style type="text/css">
	.st0{fill:none;}
	.st1{fill:#56564E;}
</style>
<rect x="-277" y="400.9" class="st0" width="40" height="40"/>
<g id="Grupo_561" transform="translate(-1544.03 5174.454)">
	<path id="Trazado_279" class="st1" d="M1286-4753.1v-0.5c0-3.3,0-6.6,0-9.8c0-0.5,0.4-1,0.9-1c0.5-0.1,1,0.3,1.1,0.8
		c0,0,0,0.1,0,0.1c0,0.6,0,1.1,0,1.7c0,2.9,0,5.7,0,8.6v0.1c0.1-0.1,0.1-0.1,0.1-0.1l3.4-3.4c0.3-0.4,0.9-0.4,1.3-0.1
		c0.4,0.3,0.5,0.9,0.3,1.3c-0.1,0.1-0.1,0.2-0.2,0.2c-1.7,1.7-3.5,3.5-5.2,5.2c-0.4,0.4-1,0.4-1.4,0c0,0,0,0,0,0
		c-0.6-0.6-1.1-1.1-1.7-1.7c-1.2-1.2-2.3-2.3-3.5-3.5c-0.4-0.4-0.4-1-0.1-1.4c0,0,0.1-0.1,0.1-0.1c0.4-0.3,1-0.3,1.3,0.1
		c0.8,0.8,1.6,1.6,2.4,2.4c0.2,0.2,0.5,0.5,0.7,0.7C1285.8-4753.3,1285.9-4753.2,1286-4753.1L1286-4753.1z"/>
	<path id="Trazado_280" class="st1" d="M1287-4746.5h-6c-0.4,0-0.8-0.2-0.9-0.6c-0.2-0.3-0.1-0.8,0.1-1c0.2-0.2,0.5-0.4,0.8-0.4
		c0.3,0,0.6,0,0.8,0h11.2c0.5,0,0.9,0.3,1,0.8c0.1,0.5-0.3,1-0.8,1.1c-0.1,0-0.1,0-0.2,0c-0.5,0-1,0-1.5,0L1287-4746.5z"/>
</g>
</svg>
