<?xml version="1.0" encoding="utf-8"?>
<!-- Generator: Adobe Illustrator 19.0.0, SVG Export Plug-In . SVG Version: 6.00 Build 0)  -->
<svg version="1.1" id="Capa_1" xmlns="http://www.w3.org/2000/svg" xmlns:xlink="http://www.w3.org/1999/xlink" x="0px" y="0px"
	 viewBox="-277 400.9 40 40" style="enable-background:new -277 400.9 40 40;" xml:space="preserve">
<style type="text/css">
	.st0{fill:none;}
	.st1{fill:#56564E;}
</style>
<rect x="-277" y="400.9" class="st0" width="40" height="40"/>
<g>
	<path class="st1" d="M-248.1,416c0-0.5-0.2-0.9-0.5-1.2c-0.9-0.9-1.9-1.9-2.8-2.8l-1.4-1.4c-0.4-0.5-1.1-0.8-1.7-0.7l-10.2,0
		l-0.2,0c-0.7,0.3-1.2,1.1-1.1,1.8c0,6.1,0,12.3,0,18.4c-0.1,0.8,0.4,1.6,1.1,1.9l15.6,0l0.1,0c0.8-0.3,1.2-1.1,1.1-1.8
		C-248.1,425.4-248.1,420.7-248.1,416z M-264.2,411.7c0-0.1,0-0.1,0-0.2c0,0,0.1,0,0.2,0l1.4,0c2.8,0,5.5,0,8.3,0
		c0.1,0,0.2,0.1,0.3,0.1c1.4,1.4,2.8,2.8,4.2,4.2c0.1,0.1,0.1,0.2,0.1,0.3c0,4.7,0,9.3,0,14c0,0.1,0,0.1,0,0.1c0,0-0.1,0-0.1,0
		h-14.2c-0.1,0-0.1,0-0.2,0c0,0,0-0.1,0-0.1v-9.2h0L-264.2,411.7z"/>
	<path class="st1" d="M-261.4,425.1h8.7c0.9,0,1-0.5,1.1-0.8c0-0.3-0.1-0.5-0.2-0.6c-0.2-0.2-0.6-0.2-0.8-0.2l-8.8,0
		c-0.2,0-0.5,0-0.8,0.2c-0.1,0.1-0.2,0.3-0.2,0.6C-262.4,424.6-262.3,425.1-261.4,425.1z"/>
	<path class="st1" d="M-261.4,422h8.7c0.9,0,1-0.5,1.1-0.8c0-0.3-0.1-0.5-0.2-0.6c-0.2-0.2-0.6-0.3-0.8-0.2l-8.8,0
		c-0.2,0-0.5,0-0.8,0.2c-0.1,0.1-0.2,0.3-0.2,0.6C-262.4,421.4-262.3,422-261.4,422z"/>
	<path class="st1" d="M-261.4,428.2h8.7c0.9,0,1-0.5,1.1-0.8c0-0.3-0.1-0.5-0.2-0.6c-0.2-0.3-0.6-0.2-0.8-0.2h-8.8
		c-0.2,0-0.5,0-0.8,0.2c-0.1,0.1-0.2,0.3-0.2,0.6C-262.4,427.7-262.3,428.2-261.4,428.2z"/>
	<path class="st1" d="M-256.8,417c0,0.4,0.2,0.8,0.6,1.1c0.3,0.2,0.6,0.4,1,0.4c0,0,0.1,0,0.1,0c0.6,0,1.1,0,1.7,0l0.8,0
		c0.9,0,1-0.5,1-0.8c0-0.3-0.1-0.5-0.2-0.6c-0.3-0.3-0.6-0.3-0.8-0.3h-2.4c-0.1,0-0.1,0-0.1,0c0,0,0-0.1,0-0.1l0-0.8
		c0-0.6,0-1.1,0-1.7c0-0.1,0-0.2-0.1-0.3c-0.1-0.2-0.2-0.3-0.4-0.4c-0.4-0.2-0.9-0.1-1.1,0.3c0,0.1-0.1,0.2-0.1,0.3
		c0,0.5,0,0.9,0,1.4l0,0.3c0,0.3,0,0.6,0,0.8C-256.8,416.8-256.8,416.9-256.8,417z"/>
</g>
</svg>
